Coordinates
version=1
nRows=19
nColumns=24
inDegrees=yes

Units are S.I. units (second, meters, Newtons, ...)
Angles are in degrees.

endheader
time	pelvis_tilt	pelvis_list	pelvis_rotation	pelvis_tx	pelvis_ty	pelvis_tz	hip_flexion_r	hip_adduction_r	hip_rotation_r	knee_angle_r	ankle_angle_r	subtalar_angle_r	mtp_angle_r	hip_flexion_l	hip_adduction_l	hip_rotation_l	knee_angle_l	ankle_angle_l	subtalar_angle_l	mtp_angle_l	lumbar_extension	lumbar_bending	lumbar_rotation
      0.64600000	     -0.15148095	      8.63123277	     -1.84203851	     -0.78971616	      1.05659122	      0.28404885	     24.08313640	     -4.11223321	    -12.00983118	      2.92363866	      0.29631986	      0.96874315	     -0.05061737	    -20.31672159	     14.36684581	     -2.85744754	      1.36604913	      1.71267111	      0.34891105	     -0.10461756	      3.63387330	     -6.12943348	      0.49773725
      0.65016667	     -0.11765256	      8.61455486	     -1.82606038	     -0.78374311	      1.05639040	      0.28408558	     23.98344776	     -4.04216870	    -11.80345843	      2.60307252	      0.30355014	      1.02390891	     -0.04816025	    -20.51279942	     14.32465707	     -2.80696669	      1.03231858	      1.56346613	      0.28863265	     -0.12039063	      3.73756093	     -6.05324407	      0.45716326
      0.65433333	     -0.07189550	      8.55710897	     -1.83889378	     -0.77762810	      1.05619572	      0.28411964	     23.84391535	     -3.92516845	    -11.43804337	      2.27722753	      0.42340961	      1.00861535	     -0.04317808	    -20.75571462	     14.24924504	     -2.65951915	      0.76542438	      1.29161341	      0.18310633	     -0.14613516	      3.78886252	     -5.90567526	      0.37464331
      0.65850000	      0.01748846	      8.46072333	     -1.88274754	     -0.77142992	      1.05605527	      0.28422620	     23.63153836	     -3.75664366	    -10.90455979	      1.95451204	      0.63570498	      0.65189288	     -0.03600930	    -21.05205612	     14.13771988	     -2.49779111	      0.53178727	      0.86976855	     -0.17224343	     -0.19678392	      3.64048690	     -5.78838326	      0.22660955
      0.66266667	      0.14987759	      8.41644637	     -1.84953150	     -0.76543710	      1.05604680	      0.28427258	     23.37316785	     -3.67490876	    -10.34925640	      1.62971854	      0.47848216	     -0.04772310	     -0.03018409	    -21.34517031	     14.04961913	     -2.33286674	      0.18698050	      0.60803819	     -0.59920380	     -0.25857631	      3.48001605	     -5.74776853	      0.09809453
      0.66683333	      0.16187109	      8.35733977	     -1.80583525	     -0.75918029	      1.05588948	      0.28424408	     23.24978651	     -3.57994053	     -9.98342234	      1.23699173	      0.46363585	     -0.15797831	     -0.02477911	    -21.52257621	     13.94786299	     -2.14121710	     -0.15981319	      0.45031490	     -0.57854805	     -0.27050015	      3.56210522	     -5.62797418	      0.06096667
      0.67100000	      0.27630058	      8.27862907	     -1.82275166	     -0.75298390	      1.05585802	      0.28440571	     22.98445888	     -3.43976337	     -9.26973556	      0.90607100	      0.34643355	     -1.00625986	     -0.00946895	    -21.77761845	     13.83577516	     -2.13015262	     -0.52254669	      0.05704854	     -0.84485365	     -0.29752055	      3.46011909	     -5.53298851	     -0.05681836
      0.67516667	      0.28210689	      8.24050403	     -1.72350384	     -0.74674015	      1.05576109	      0.28430603	     22.86751168	     -3.39330536	     -9.00364346	      0.48008984	      0.27468495	     -1.01895366	     -0.00630563	    -21.90003564	     13.73500608	     -2.01269298	     -0.96366476	     -0.03402531	     -0.82435188	     -0.29750645	      3.54714799	     -5.43454216	     -0.07048398
      0.67933333	      0.38804024	      8.12873553	     -1.79098139	     -0.74037849	      1.05573115	      0.28453758	     22.58738883	     -3.20358427	     -8.16558453	      0.18289092	     -0.06864610	     -1.95807481	      0.01334306	    -22.14515374	     13.60019886	     -1.97271898	     -1.31425763	     -0.59956114	     -0.99754662	     -0.28479039	      3.49138476	     -5.26264557	     -0.20006830
      0.68350000	      0.38292473	      8.07079478	     -1.66097063	     -0.73404551	      1.05569855	      0.28443800	     22.45165102	     -3.14823602	     -7.88625486	     -0.21440451	     -0.15727211	     -1.96696674	      0.01751056	    -22.22694683	     13.45923909	     -1.86984217	     -1.81502439	     -0.67976169	     -0.98654556	     -0.28027949	      3.55893622	     -5.17708288	     -0.20997864
      0.68766667	      0.47554141	      7.94535049	     -1.72698759	     -0.72760898	      1.05570472	      0.28466882	     22.18020227	     -2.95138549	     -7.12639523	     -0.49994351	     -0.72725092	     -2.86970978	      0.04296054	    -22.42805013	     13.30603978	     -1.85491235	     -2.21475032	     -1.28363387	     -1.04196615	     -0.22761356	      3.56392936	     -4.96345989	     -0.33590164
      0.69183333	      0.44623619	      7.83707085	     -1.59957736	     -0.72108554	      1.05570823	      0.28465929	     22.00932682	     -2.84079908	     -6.65877841	     -0.79122463	     -0.94855989	     -3.03047570	      0.05784375	    -22.47328475	     13.09648748	     -1.72887776	     -2.73532193	     -1.48133155	     -1.00400440	     -0.19701127	      3.57475501	     -4.84647822	     -0.36858381
      0.69600000	      0.54362427	      7.70721711	     -1.61046362	     -0.71466078	      1.05582303	      0.28492317	     21.72683624	     -2.65722882	     -6.04887993	     -1.07134986	     -1.58447450	     -4.04342772	      0.11202220	    -22.60387884	     12.90634319	     -1.93353664	     -3.27336882	     -1.98057036	     -1.03250961	     -0.05658112	      3.57411086	     -4.71040961	     -0.47177781
      0.70016667	      0.54105111	      7.60848834	     -1.53210313	     -0.70821037	      1.05588351	      0.28489087	     21.56142551	     -2.56031723	     -5.65774414	     -1.39859422	     -1.89898478	     -4.10939835	      0.13099757	    -22.63669960	     12.72685281	     -1.79798232	     -3.83192108	     -2.29048437	     -0.92271099	     -0.01086300	      3.62064321	     -4.50740177	     -0.51328641
      0.70433333	      0.54437694	      7.46497455	     -1.46418280	     -0.70163151	      1.05598908	      0.28496013	     21.37684717	     -2.40648742	     -5.35251059	     -1.69130003	     -2.46777134	     -4.40114052	      0.15511654	    -22.63947796	     12.49547955	     -1.91212184	     -4.44320350	     -2.84942022	     -0.84986714	      0.05877333	      3.67887690	     -4.31602497	     -0.57551568
      0.70850000	      0.58592818	      7.31671402	     -1.42659204	     -0.69510525	      1.05615556	      0.28506013	     21.15999830	     -2.24790066	     -4.99347871	     -1.99885757	     -3.07948630	     -4.81787271	      0.18872840	    -22.66256704	     12.26567913	     -2.01763411	     -5.06289342	     -3.39300258	     -0.74796136	      0.16187325	      3.71634898	     -4.09310050	     -0.65390364
      0.71266667	      0.67616268	      7.17954491	     -1.44238860	     -0.68867417	      1.05637523	      0.28521961	     20.92772856	     -2.09194077	     -4.68271563	     -2.34895827	     -3.70645587	     -5.39565442	      0.24500459	    -22.70300243	     12.06267172	     -2.18975261	     -5.73046661	     -3.92098260	     -0.60117999	      0.33872484	      3.78316016	     -3.89758586	     -0.73040414
      0.71683333	      0.68857531	      7.03429904	     -1.38349752	     -0.68216586	      1.05656728	      0.28532055	     20.75752172	     -1.95214748	     -4.42094349	     -2.68461550	     -4.24900442	     -5.72401063	      0.29994871	    -22.63320524	     11.81608140	     -2.33939404	     -6.46469341	     -4.43027821	     -0.42927133	      0.51030306	      3.81289215	     -3.68777992	     -0.78937178
      0.72100000	      0.72001068	      6.87436518	     -1.33556715	     -0.67564790	      1.05681294	      0.28541165	     20.58224467	     -1.80340026	     -4.24860886	     -3.04987543	     -4.78382981	     -5.99997033	      0.35476359	    -22.56017346	     11.55499735	     -2.51421442	     -7.23092156	     -5.00088618	     -0.25476585	      0.68814484	      3.85680657	     -3.47530542	     -0.84340004
